# xmcd
#
# Track frame offsets:
#	150
#	12906
#	26358
#	38601
#	51038
#	61212
#	74963
#	84869
#	96963
#	109308
#	120708
#	134478
#	145863
#	156791
#	170693
#
# Disc length: 2425
#
# Revision: 1
# Processed by: cddbd v1.5.2PL0 Copyright (c) Steve Scherf et al.
# Submitted via: kJams Pro (development) 1.0patch48.42
#
DISCID=cd09770f
DTITLE=Skeeter Davies - CB 90130
DYEAR=1980
DGENRE=Country
TTITLE0=Skeeter Davies - The End Of The World
TTITLE1=Skeeter Davies - I Can't Help You I'm Falling Too
TTITLE2=Skeeter Davies - Set Him Free
TTITLE3=Skeeter Davies - My Last Date
TTITLE4=Skeeter Davies - Optimistic
TTITLE5=Skeeter Davies - Where I Ought To Be
TTITLE6=Skeeter Davies - I'm Saving My Love
TTITLE7=Skeeter Davies - Gonna Get Along Without You Now
TTITLE8=Skeeter Davies - What Does It Take (To Keep A Man.....)
TTITLE9=Skeeter Davies - I'm A Lover (Not A Fighter)
TTITLE10=Skeeter Davies - Fuel To The Flame
TTITLE11=Skeeter Davies - Homebreaker
TTITLE12=Skeeter Davies - Am I That Easy To Forget?
TTITLE13=Skeeter Davies - He Says The Same Things To Me
TTITLE14=Skeeter Davies - I Can't Stay Mad At To You
EXTD=
EXTT0=
EXTT1=
EXTT2=
EXTT3=
EXTT4=
EXTT5=
EXTT6=
EXTT7=
EXTT8=
EXTT9=
EXTT10=
EXTT11=
EXTT12=
EXTT13=
EXTT14=
PLAYORDER=
